<svg width="60" height="60" viewBox="0 0 60 60" fill="none" xmlns="http://www.w3.org/2000/svg">
<path d="M55.4628 40.9487C54.3378 40.9487 53.4258 41.8606 53.4258 42.9858V46.3808C53.4258 47.5057 54.3378 48.4179 55.4628 48.4179C56.5878 48.4179 57.4999 47.5057 57.4999 46.3808V42.9858C57.4999 41.8606 56.5878 40.9487 55.4628 40.9487Z" fill="#FF99F6"/>
<path d="M31.9356 36.3929C31.3112 36.6011 30.661 36.7064 30.0029 36.7064C29.3449 36.7064 28.6947 36.6011 28.0704 36.3929L15.2344 32.1143V39.0831C15.2344 39.9599 15.7955 40.7383 16.6273 41.0154L29.3588 45.2593C29.5679 45.3291 29.7855 45.364 30.0029 45.364C30.2204 45.364 30.438 45.3291 30.6471 45.2593L43.3785 41.0154C44.2102 40.7382 44.7714 39.9598 44.7714 39.0831V32.1144L31.9356 36.3929Z" fill="#FF99F6"/>
<path d="M56.1071 20.1742L30.6441 11.6866C30.4351 11.6168 30.2175 11.582 30 11.582C29.7825 11.582 29.5648 11.6168 29.3559 11.6866L3.89294 20.1742C3.06117 20.4513 2.5 21.2298 2.5 22.1065C2.5 22.9834 3.06117 23.7616 3.89294 24.039L15.2315 27.8185L29.3559 32.5266C29.5649 32.5963 29.7825 32.631 30 32.631C30.2175 32.631 30.4351 32.5961 30.6441 32.5266L44.7685 27.8185L53.4259 24.9327V34.125C53.4259 35.2499 54.3379 36.1621 55.463 36.1621C56.588 36.1621 57.5 35.2499 57.5 34.125V22.1064C57.5 21.2298 56.9388 20.4513 56.1071 20.1742Z" fill="#FF99F6"/>
</svg>
