<svg width="60" height="60" viewBox="0 0 60 60" fill="none" xmlns="http://www.w3.org/2000/svg">
<path d="M22.0898 47.5866C22.0898 47.3877 21.9287 47.2266 21.7298 47.2266H17.3173L20.1387 37.8223H33.8232L37.2245 47.2266H32.9967C32.7979 47.2266 32.6367 47.3877 32.6367 47.5866V52.14C32.6367 52.3388 32.7979 52.5 32.9967 52.5H52.14C52.3388 52.5 52.5 52.3388 52.5 52.14V47.5866C52.5 47.3877 52.3388 47.2266 52.14 47.2266H48.457L32.727 7.72681C32.6725 7.58986 32.54 7.5 32.3926 7.5H24.9864C24.8313 7.5 24.6936 7.59938 24.6447 7.74661L11.543 47.2266H7.86C7.66118 47.2266 7.5 47.3877 7.5 47.5866V52.14C7.5 52.3388 7.66118 52.5 7.86 52.5H21.7298C21.9287 52.5 22.0898 52.3388 22.0898 52.14V47.5866ZM26.3615 19.0751L31.5556 32.5488H22.0105L26.3615 19.0751Z" fill="#D2FF1E"/>
</svg>
