<svg width="60" height="60" viewBox="0 0 60 60" fill="none" xmlns="http://www.w3.org/2000/svg">
<path d="M46.6533 6.90977H42.0827C41.715 6.90977 41.4171 7.20762 41.4172 7.57529C41.4173 8.40986 41.4171 10.3629 41.4171 14.9819C41.4171 17.1873 39.6294 18.9754 37.424 18.9754H22.599C20.3937 18.9754 18.606 17.1871 18.606 14.9819C18.606 10.3626 18.6057 8.40957 18.6059 7.5752C18.606 7.20752 18.308 6.90967 17.9403 6.90967H13.3696C12.267 6.90967 11.373 7.80361 11.373 8.90625V53.0031C11.373 54.1058 12.267 54.9997 13.3696 54.9997H46.6532C47.7559 54.9997 48.6498 54.1058 48.6498 53.0031V8.90625C48.6498 7.80361 47.7559 6.90977 46.6533 6.90977ZM28.1686 46.927C28.1686 48.0297 27.2746 48.9236 26.172 48.9236H19.783C18.6804 48.9236 17.7864 48.0297 17.7864 46.927V40.5381C17.7864 39.4354 18.6804 38.5415 19.783 38.5415H26.172C27.2746 38.5415 28.1686 39.4354 28.1686 40.5381V46.927ZM28.1686 32.552C28.1686 33.6546 27.2746 34.5485 26.172 34.5485H19.783C18.6804 34.5485 17.7864 33.6546 17.7864 32.552V26.163C17.7864 25.0604 18.6804 24.1664 19.783 24.1664H26.172C27.2746 24.1664 28.1686 25.0604 28.1686 26.163V32.552ZM40.2398 45.7291H33.0523C31.9497 45.7291 31.0558 44.8352 31.0558 43.7325C31.0558 42.6299 31.9497 41.7359 33.0523 41.7359H40.2398C41.3425 41.7359 42.2364 42.6299 42.2364 43.7325C42.2364 44.8352 41.3425 45.7291 40.2398 45.7291ZM40.2398 31.354H33.0523C31.9497 31.354 31.0558 30.4601 31.0558 29.3574C31.0558 28.2548 31.9497 27.3608 33.0523 27.3608H40.2398C41.3425 27.3608 42.2364 28.2548 42.2364 29.3574C42.2364 30.4602 41.3425 31.354 40.2398 31.354Z" fill="#FF6506"/>
<path d="M22.5981 16.9792H37.4231C38.5258 16.9792 39.4197 16.0853 39.4197 14.9826V6.99658C39.4197 5.89395 38.5258 5 37.4231 5H22.5981C21.4955 5 20.6016 5.89395 20.6016 6.99658V14.9827C20.6017 16.0854 21.4956 16.9792 22.5981 16.9792Z" fill="#FF6506"/>
</svg>
