<svg width="60" height="60" viewBox="0 0 60 60" fill="none" xmlns="http://www.w3.org/2000/svg">
<path fill-rule="evenodd" clip-rule="evenodd" d="M22.5785 7.82715C28.8705 7.82715 34.4799 11.4472 37.1614 16.9226C25.2799 17.1117 16.3816 28.1311 18.8602 39.8704C17.7544 39.6119 16.6783 39.2366 15.6381 38.7432L7.91215 40.2706C6.94047 40.4629 6.08345 39.6042 6.27771 38.6327L7.80389 31.0008C6.77302 28.8268 6.25071 26.4949 6.25071 24.0621C6.25071 15.1102 13.5753 7.82715 22.5785 7.82715ZM52.8904 41.1577C52.6921 41.74 52.4602 42.313 52.1936 42.8752L53.7198 50.5071C53.8915 51.3657 53.2346 52.1715 52.3552 52.1715C52.3385 52.1715 52.3281 52.1724 52.3177 52.1729C52.2069 52.1787 52.0942 52.1468 44.3594 50.6176C42.1916 51.6458 39.8669 52.168 37.4416 52.1712C28.5001 52.1582 21.2305 44.881 21.2305 35.9365C21.2305 26.7227 28.9409 19.2921 38.2213 19.7197L38.2218 19.7214C49.0076 20.2432 56.3136 30.9605 52.8395 41.1577H52.8904Z" fill="#A2F38E"/>
</svg>
