<svg width="60" height="60" viewBox="0 0 60 60" fill="none" xmlns="http://www.w3.org/2000/svg">
<g clip-path="url(#clip0_955_27604)">
<path d="M10.7164 37.8897C10.6131 38.0482 10.6348 38.2574 10.7686 38.3911L21.6104 49.2329C21.7442 49.3667 21.9534 49.3885 22.1118 49.2851L26.1755 46.6338C26.3883 46.495 26.4194 46.1956 26.2398 46.016L13.9855 33.7616C13.8058 33.582 13.5064 33.6131 13.3676 33.8259L10.7164 37.8897Z" fill="#80BFFF"/>
<path d="M25.6026 15.0802C25.8612 14.8216 25.6657 14.3801 25.3004 14.3979L17.3088 14.7855C17.2095 14.7903 17.1156 14.8319 17.0453 14.9022L7.93137 24.0161C7.71945 24.2281 7.80725 24.5892 8.09281 24.6801L13.8597 26.517C14.0022 26.5624 14.1582 26.5245 14.264 26.4188L25.6026 15.0802Z" fill="#80BFFF"/>
<path d="M35.321 51.9074C35.412 52.193 35.7731 52.2808 35.985 52.0688L45.0989 42.9549C45.1692 42.8846 45.2108 42.7907 45.2156 42.6914L45.6033 34.6998C45.621 34.3345 45.1795 34.139 44.9209 34.3976L33.5824 45.7362C33.4766 45.842 33.4387 45.998 33.4841 46.1405L35.321 51.9074Z" fill="#80BFFF"/>
<path d="M5.2848 44.0062C5.12859 43.85 5.12859 43.5968 5.28479 43.4405L8.37013 40.3551C8.52634 40.1989 8.77961 40.1989 8.93582 40.3551L10.6481 42.0674C10.8043 42.2236 10.8043 42.4769 10.6481 42.6331L7.56277 45.7184C7.40656 45.8746 7.1533 45.8746 6.99709 45.7184L5.2848 44.0062Z" fill="#80BFFF"/>
<path d="M16.5589 54.7166C16.4027 54.8728 16.1494 54.8728 15.9932 54.7166L14.2809 53.0043C14.1247 52.8481 14.1247 52.5948 14.2809 52.4386L17.3662 49.3532C17.5224 49.197 17.7757 49.1969 17.9319 49.3532L19.6442 51.0655C19.8004 51.2217 19.8004 51.4749 19.6442 51.6311L16.5589 54.7166Z" fill="#80BFFF"/>
<path d="M7.9723 50.1555C7.81609 49.9993 7.81609 49.746 7.9723 49.5898L12.789 44.7731C12.9452 44.6169 13.1985 44.6169 13.3547 44.7731L15.067 46.4854C15.2232 46.6416 15.2232 46.8948 15.067 47.0511L10.2503 51.8678C10.0941 52.024 9.8408 52.024 9.68459 51.8678L7.9723 50.1555Z" fill="#80BFFF"/>
<path d="M44.1909 17.4208C45.0805 17.4208 45.8017 16.6996 45.8017 15.81C45.8017 14.9204 45.0805 14.1992 44.1909 14.1992C43.3013 14.1992 42.5801 14.9204 42.5801 15.81C42.5801 16.6996 43.3013 17.4208 44.1909 17.4208Z" fill="#80BFFF"/>
<path d="M53.9222 6.31146C53.8827 6.20358 53.7975 6.11836 53.6896 6.07888C47.4089 3.78032 40.0886 5.15128 35.0481 10.1917L15.2926 29.9471C15.1364 30.1034 15.1364 30.3566 15.2926 30.5128L29.4882 44.7083C29.6444 44.8645 29.8977 44.8645 30.0539 44.7083L49.8094 24.9528C54.8498 19.9125 56.2206 12.5921 53.9222 6.31146ZM47.6084 19.2266C45.7212 21.1137 42.6616 21.1137 40.7744 19.2266C38.8872 17.3394 38.8872 14.2797 40.7744 12.3925C42.6616 10.5053 45.7212 10.5053 47.6084 12.3925C49.4955 14.2797 49.4955 17.3395 47.6084 19.2266Z" fill="#80BFFF"/>
</g>
<defs>
<clipPath id="clip0_955_27604">
<rect width="50" height="50" fill="white" transform="translate(5 5)"/>
</clipPath>
</defs>
</svg>
