<svg width="60" height="60" viewBox="0 0 60 60" fill="none" xmlns="http://www.w3.org/2000/svg">
<mask id="mask0_930_28847" style="mask-type:luminance" maskUnits="userSpaceOnUse" x="5" y="5" width="50" height="50">
<path d="M5 5H55V55H5V5Z" fill="white"/>
</mask>
<g mask="url(#mask0_930_28847)">
<path d="M19.5859 16.4587C19.5859 10.7057 24.2496 6.04199 30.0026 6.04199C35.7555 6.04199 40.4193 10.7057 40.4193 16.4587V27.917C40.4193 33.6699 35.7555 38.3337 30.0026 38.3337C24.2496 38.3337 19.5859 33.6699 19.5859 27.917V16.4587Z" fill="#80BFFF"/>
<path d="M30.0148 42.5006C30.0106 42.5006 30.0064 42.5006 30.0023 42.5006C29.9981 42.5006 29.9939 42.5006 29.9898 42.5006C23.8789 42.4948 18.6431 38.7298 16.4798 33.3856C16.0481 32.3192 14.8335 31.8046 13.767 32.2362C12.7005 32.6679 12.1859 33.8825 12.6176 34.9489C15.1487 41.2019 20.9577 45.7827 27.9189 46.5527V52.9173C27.9189 54.0679 28.8517 55.0006 30.0023 55.0006C31.1529 55.0006 32.0856 54.0679 32.0856 52.9173V46.5531C39.0483 45.7839 44.8587 41.2027 47.3902 34.9489C47.8219 33.8825 47.3073 32.6679 46.2408 32.2362C45.1742 31.8046 43.9596 32.3192 43.5279 33.3856C41.3644 38.7308 36.1271 42.4962 30.0148 42.5006Z" fill="#80BFFF"/>
</g>
</svg>
