<svg width="60" height="60" viewBox="0 0 60 60" fill="none" xmlns="http://www.w3.org/2000/svg">
<g clip-path="url(#clip0_955_32169)">
<path d="M19.9067 43.5352L18.7339 43.1447C18.211 42.9707 17.8329 42.514 17.7598 41.9678C17.6866 41.4215 17.9311 40.8813 18.3896 40.5758L20.1604 39.3963C20.4569 39.1988 20.6339 38.8682 20.6339 38.5118C20.6339 37.9259 20.1571 37.4492 19.5713 37.4492H15.8262V46.103H19.5713C20.1572 46.103 20.6339 45.6263 20.6339 45.0404V44.5433C20.6339 44.0851 20.3417 43.6799 19.9067 43.5352Z" fill="#FF99F6"/>
<path d="M30.8093 14.5833C30.7424 14.1824 30.399 13.8916 29.9927 13.8916C29.5863 13.8916 29.243 14.1824 29.1762 14.5833L28.4902 18.6992H31.4953L30.8093 14.5833Z" fill="#FF99F6"/>
<path d="M50.673 28.5577H42.973C43.1331 28.1063 43.2211 27.621 43.2211 27.1154V9.32695C43.2212 6.94102 41.2801 5 38.8942 5H21.1058C18.7199 5 16.7788 6.94102 16.7788 9.32695V27.1154C16.7788 27.621 16.8668 28.1063 17.0269 28.5577H9.32695C6.94102 28.5577 5 30.4987 5 32.8846V50.673C5 53.059 6.94102 55 9.32695 55H27.1154C28.2229 55 29.2339 54.5813 30 53.8947C30.7661 54.5814 31.7772 55 32.8846 55H50.673C53.059 55 55 53.059 55 50.673V32.8846C55 30.4987 53.059 28.5577 50.673 28.5577ZM23.5096 44.546V45.0431C23.5096 47.2196 21.7388 48.9902 19.5624 48.9902H14.375C13.5784 48.9902 12.9327 48.3444 12.9327 47.548V36.0095C12.9327 35.2129 13.5785 34.5672 14.375 34.5672H19.5624C21.739 34.5672 23.5096 36.338 23.5096 38.5144C23.5096 39.6866 22.9936 40.7843 22.1102 41.5296C22.98 42.2639 23.5096 43.3568 23.5096 44.546ZM34.0833 25.4131C34.0031 25.4265 33.9232 25.433 33.8444 25.433C33.1521 25.433 32.5411 24.9331 32.4234 24.2275L31.9832 21.5866H28.0166L27.5764 24.2275C27.4454 25.0133 26.7021 25.5439 25.9166 25.4131C25.1309 25.2821 24.6001 24.5391 24.7311 23.7533L26.338 14.1118C26.6377 12.3143 28.1777 11.0096 30 11.0096C31.8223 11.0096 33.3623 12.3142 33.6619 14.1117L35.2688 23.7532C35.3998 24.5391 34.869 25.2821 34.0833 25.4131ZM41.7788 46.1058H45.625C46.4216 46.1058 47.0673 46.7516 47.0673 47.548C47.0673 48.3445 46.4215 48.9903 45.625 48.9903H41.7788C38.8628 48.9903 36.4903 46.618 36.4903 43.7019V39.8557C36.4903 36.9396 38.8627 34.5672 41.7788 34.5672H45.625C46.4216 34.5672 47.0673 35.213 47.0673 36.0095C47.0673 36.806 46.4215 37.4518 45.625 37.4518H41.7788C40.4533 37.4518 39.375 38.5301 39.375 39.8556V43.7018C39.375 45.0274 40.4533 46.1058 41.7788 46.1058Z" fill="#FF99F6"/>
</g>
<defs>
<clipPath id="clip0_955_32169">
<rect width="50" height="50" fill="white" transform="translate(5 5)"/>
</clipPath>
</defs>
</svg>
