<svg width="60" height="60" viewBox="0 0 60 60" fill="none" xmlns="http://www.w3.org/2000/svg">
<path d="M37.7039 35.5023C37.3777 35.4426 37.0755 35.4126 36.7962 35.4126C36.2107 35.4126 35.7288 35.5457 35.3499 35.8115C34.9708 36.0777 34.7812 36.4234 34.7812 36.8489C34.7812 37.2348 34.9274 37.5506 35.2202 37.7965C35.5125 38.0427 35.885 38.1655 36.3374 38.1655C36.6831 38.1655 37.0188 38.1056 37.3448 37.9859C37.6705 37.8663 37.9398 37.7066 38.1527 37.5071C38.4584 37.2677 38.6116 37.0152 38.6116 36.7491V35.7518C38.3323 35.6455 38.0296 35.5623 37.7039 35.5023Z" fill="#2B438D"/>
<path d="M9.66992 11.3306C10.1612 13.2802 11.9291 14.728 14.0291 14.728H50.3233V11.3306H9.66992Z" fill="#2B438D"/>
<path d="M24.807 29.8252L23.1113 34.8324H26.4628L24.807 29.8252Z" fill="#2B438D"/>
<path d="M14.0291 5.00146C11.9291 5.00146 10.1612 6.4492 9.66992 8.39898H50.3232V5.00146H14.0291Z" fill="#2B438D"/>
<path d="M14.03 17.6605C12.4447 17.6605 10.9751 17.1597 9.76758 16.3101V47.2063C9.76758 51.5046 13.2645 55.0014 17.5626 55.0014H50.2596V17.6605H14.03ZM28.0927 40.2611L26.9955 37.0892H22.5868L21.5096 40.2611H18.1582L23.325 26.0973H26.2774L31.4442 40.2611H28.0927ZM41.718 40.3908C41.4917 40.4108 41.2857 40.4208 41.0996 40.4208C40.5011 40.4208 40.0488 40.3042 39.743 40.0716C39.4369 39.8391 39.2443 39.5099 39.1645 39.0842L39.1047 38.6054C38.639 39.2038 38.0838 39.6627 37.4389 39.9818C36.7937 40.3009 36.1122 40.4606 35.3941 40.4606C34.8754 40.4606 34.3931 40.3774 33.9478 40.2112C33.502 40.0451 33.1199 39.8122 32.8008 39.513C32.4815 39.2137 32.2287 38.8615 32.0427 38.4556C31.8562 38.0501 31.7635 37.6078 31.7635 37.129C31.7635 36.6104 31.8731 36.1384 32.0927 35.7126C32.3121 35.2871 32.6213 34.9215 33.0203 34.6154C33.4193 34.3096 33.8912 34.0702 34.4366 33.8972C34.9818 33.7246 35.5869 33.6378 36.252 33.6378C36.6907 33.6378 37.1163 33.6747 37.5287 33.7475C37.9408 33.8208 38.2998 33.9305 38.606 34.0767V33.598C38.606 32.388 37.9076 31.7826 36.5113 31.7826C35.9393 31.7826 35.3941 31.8793 34.8754 32.0718C34.3568 32.2648 33.8113 32.5541 33.2396 32.9396L32.302 30.9447C32.9933 30.4928 33.7115 30.1536 34.4565 29.9274C35.2012 29.7014 35.9926 29.5882 36.8305 29.5882C38.413 29.5882 39.6364 29.9606 40.501 30.7054C41.3654 31.4504 41.7977 32.5407 41.7977 33.977V36.6701C41.7977 36.9894 41.8476 37.2122 41.9473 37.3385C42.047 37.465 42.2232 37.5414 42.4759 37.5679V40.2611H42.476C42.1968 40.3275 41.944 40.3708 41.718 40.3908Z" fill="#2B438D"/>
</svg>
