<svg width="60" height="60" viewBox="0 0 60 60" fill="none" xmlns="http://www.w3.org/2000/svg">
<path fill-rule="evenodd" clip-rule="evenodd" d="M6.86047 15.4959V43.8164C6.86047 44.1469 7.21175 44.3602 7.5092 44.2162C14.3264 40.9146 22.3436 41.0234 29.0816 44.5426V15.4959C22.1813 11.5014 13.761 11.5014 6.86047 15.4959ZM25.5053 44.9653C21.322 44.8416 17.9711 45.0628 14.8082 45.9624C11.2172 46.9825 7.8714 48.8286 3.16957 51.6639C2.87595 51.8409 2.5 51.6304 2.5 51.2876V20.3027L5.02398 18.7662V46.1124C5.02398 46.8165 5.80505 47.2683 6.42015 46.895C12.2573 43.3382 19.2492 42.6964 25.5053 44.9653ZM54.976 18.7662V46.1124C54.976 46.8203 54.1956 47.2688 53.5799 46.895C47.9466 43.461 41.2287 42.7448 35.1445 44.742C42.4416 44.7958 49.8042 47.6635 56.8359 51.6974C57.1307 51.8666 57.5 51.6548 57.5 51.3148V20.3027L54.976 18.7662ZM30.9182 15.4959C37.8187 11.5014 46.239 11.5014 53.1394 15.4959V43.8164C53.1394 44.1469 52.7881 44.3602 52.4907 44.2162C45.6735 40.9146 37.6563 41.0234 30.9182 44.5426V15.4959Z" fill="#BA78EF"/>
</svg>
