<svg width="60" height="60" viewBox="0 0 60 60" fill="none" xmlns="http://www.w3.org/2000/svg">
<path d="M46.2119 21.1721L38.8259 13.7861C37.5414 12.5016 35.4541 12.5016 34.3301 13.7861L23.5723 24.544L35.4541 36.4258L46.2119 25.6679C47.3358 24.544 47.3358 22.4566 46.2119 21.1721Z" fill="#B5A8FF"/>
<path d="M7.51724 50.5555C7.35668 51.0372 7.51724 51.6795 7.99894 52.0006C8.48063 52.3218 8.96233 52.6429 9.44402 52.4823L21.4864 49.4316L10.568 38.5132L7.51724 50.5555Z" fill="#B5A8FF"/>
<path d="M12.4414 35.7534L21.4094 26.7854L33.329 38.7049L24.3609 47.6729L12.4414 35.7534Z" fill="#B5A8FF"/>
<path d="M50.8664 10.0939L49.903 9.13055C48.7791 8.0066 47.4945 7.5249 46.0495 7.5249C44.6044 7.5249 43.1593 8.16716 42.1959 9.13055L40.4297 10.8968L49.1002 19.5673L50.8664 17.801C51.8298 16.8377 52.472 15.3926 52.472 13.9475C52.472 12.5024 51.8298 11.0573 50.8664 10.0939Z" fill="#B5A8FF"/>
<path d="M46.3709 30.1638C46.3709 30.4849 46.2103 30.9666 45.8892 31.1272L38.5032 38.5131C37.8609 39.1554 37.8609 40.1188 38.5032 40.761C39.1454 41.4033 40.1088 41.4033 40.7511 40.761L48.1371 33.3751C49.7427 31.7694 49.9033 29.3609 48.9399 27.5947L46.3709 30.1638Z" fill="#B5A8FF"/>
</svg>
