<svg width="70" height="26" viewBox="0 0 70 26" fill="none" xmlns="http://www.w3.org/2000/svg">
<path d="M11.2936 0.403493C5.61643 0.533317 1.01994 5.17893 0.946253 10.8579C0.905902 13.9105 2.16731 16.6754 4.2059 18.6351L4.47608 18.1789C5.24976 16.8719 5.35327 15.2737 4.75678 13.8754C4.33397 12.8842 4.12169 11.7824 4.17959 10.6263C4.36731 6.83332 7.44801 3.78419 11.241 3.63332C15.441 3.46665 18.9112 6.83507 18.9112 10.9982C18.9112 14.4245 16.5603 17.3123 13.3884 18.1351C12.7971 18.2877 12.1796 18.3702 11.541 18.3702C10.3182 18.3702 9.1638 18.0684 8.14625 17.5386L5.13573 19.4333C4.17081 20.0842 3.55327 21.1368 3.45327 22.2965L3.27257 24.4035L8.49011 21.1456C9.56731 21.4702 10.7182 21.6281 11.9094 21.5877C17.5989 21.393 22.1463 16.6737 22.1375 10.9807C22.1287 5.06139 17.2427 0.266651 11.2936 0.403493Z" fill="#A580E0"/>
<path d="M13.2414 8.08772H8.13087C7.41678 8.08772 6.83789 8.66622 6.83789 9.37983C6.83789 10.0934 7.41678 10.6719 8.13087 10.6719H13.2414C13.9555 10.6719 14.5344 10.0934 14.5344 9.37983C14.5344 8.66622 13.9555 8.08772 13.2414 8.08772Z" fill="#A580E0"/>
<path d="M14.6362 11.4842H10.0801C9.366 11.4842 8.78711 12.0627 8.78711 12.7763C8.78711 13.4899 9.366 14.0684 10.0801 14.0684H14.6362C15.3503 14.0684 15.9292 13.4899 15.9292 12.7763C15.9292 12.0627 15.3503 11.4842 14.6362 11.4842Z" fill="#A580E0"/>
<path d="M30.189 20.0859C29.7574 20.0859 29.3978 19.9473 29.1118 19.6684C28.8258 19.3894 28.6118 18.9737 28.4697 18.4158C28.4118 18.1842 28.3609 17.8824 28.3206 17.5123C28.2785 17.1421 28.2399 16.7351 28.203 16.2912C28.1662 15.8473 28.1363 15.393 28.1153 14.9263C28.0942 14.4614 28.0785 14.0087 28.0662 13.5684C28.0539 13.128 28.0469 12.7333 28.0469 12.3842C28.0469 11.1965 28.1171 10.1473 28.2592 9.23857C28.3995 8.3298 28.6188 7.54383 28.9135 6.88418C29.2083 6.22454 29.5942 5.68419 30.0714 5.26489C30.5486 4.84559 31.1258 4.53331 31.803 4.3298C32.4802 4.12629 33.2714 4.02454 34.1767 4.02454C35.082 4.02454 35.8627 4.11752 36.6434 4.30524C37.4241 4.49296 38.1153 4.7719 38.7171 5.14559C39.3188 5.51927 39.7925 5.98419 40.1381 6.54033C40.482 7.09647 40.6556 7.74032 40.6556 8.4719C40.6556 9.16138 40.5013 9.73857 40.1942 10.2035C39.8872 10.6684 39.489 11.0473 38.9978 11.3368C38.5083 11.628 37.982 11.8526 37.4223 12.0087C36.8609 12.1666 36.3276 12.2824 35.8206 12.3579C35.5381 12.4 35.3434 12.4456 35.2346 12.4947C35.1258 12.5438 35.0732 12.6193 35.0732 12.7193C35.0732 12.7859 35.1258 12.8772 35.2293 12.993C35.3328 13.1087 35.4749 13.2491 35.6521 13.4105C35.8311 13.5719 36.0363 13.7596 36.2697 13.9719C36.5013 14.1842 36.7434 14.4193 36.9925 14.6754C37.2328 14.9158 37.5135 15.1982 37.8328 15.5228C38.1521 15.8473 38.4749 16.1807 38.7978 16.5263C39.1223 16.8719 39.4223 17.1982 39.7013 17.5105C39.9802 17.8228 40.2065 18.0894 40.3802 18.314C40.5539 18.5386 40.6416 18.6877 40.6416 18.7631C40.6416 18.9965 40.5714 19.1912 40.4293 19.3491C40.2872 19.507 40.11 19.6245 39.8942 19.7035C39.6785 19.7824 39.4416 19.821 39.1837 19.821C38.9258 19.821 38.6258 19.7421 38.3048 19.5842C37.9855 19.4263 37.6486 19.207 37.296 18.9245C36.9434 18.6421 36.5837 18.314 36.2188 17.9403C35.8539 17.5666 35.4872 17.1596 35.1223 16.7193C34.5749 16.1052 34.0802 15.5684 33.6399 15.1123C33.1995 14.6561 32.8293 14.2982 32.5311 14.0403C32.2328 13.7824 32.0241 13.6544 31.9083 13.6544C31.8258 13.6544 31.7609 13.6894 31.7153 13.7596C31.6697 13.8298 31.6364 13.9544 31.6153 14.1333C31.5942 14.3123 31.582 14.5544 31.5785 14.8614C31.5749 15.1684 31.5714 15.5596 31.5714 16.0333C31.5714 16.1754 31.5732 16.3526 31.5785 16.5684C31.582 16.7842 31.5872 17.0123 31.5907 17.2544C31.5942 17.4947 31.5978 17.728 31.5978 17.9526V18.5509C31.5978 18.7245 31.5942 18.8491 31.5855 18.9245C31.5188 19.3473 31.3592 19.6473 31.1065 19.821C30.8539 19.9947 30.5486 20.0824 30.1907 20.0824L30.189 20.0859ZM32.9434 11.3403C33.2258 11.3403 33.5732 11.314 33.9837 11.2596C34.3942 11.2052 34.8206 11.1123 35.2609 10.9789C35.7013 10.8456 36.1135 10.6701 36.5013 10.4491C36.8872 10.2298 37.2013 9.95261 37.4416 9.62103C37.682 9.28945 37.803 8.89822 37.803 8.4491C37.803 7.99997 37.6925 7.58945 37.4732 7.26489C37.2539 6.94033 36.9574 6.68068 36.589 6.48594C36.2188 6.2912 35.81 6.14734 35.3627 6.05612C34.9135 5.96489 34.4609 5.91927 34.0048 5.91927C33.5486 5.91927 33.1346 5.98594 32.8153 6.11927C32.496 6.25261 32.2381 6.45085 32.0434 6.71752C31.8486 6.98418 31.7048 7.33155 31.6135 7.76489C31.5556 8.00524 31.5118 8.24734 31.482 8.48769C31.4521 8.72804 31.4293 8.96664 31.4135 9.20348C31.396 9.44033 31.389 9.67015 31.389 9.89471C31.389 10.2596 31.4276 10.5491 31.5065 10.7614C31.5855 10.9737 31.7363 11.1228 31.9609 11.2105C32.1855 11.2982 32.5135 11.3421 32.9451 11.3421L32.9434 11.3403Z" fill="#A580E0"/>
<path d="M45.9443 19.9754C44.8654 19.7421 44.1268 19.1982 43.7338 18.3439C43.3391 17.4877 43.1426 16.3509 43.1426 14.9298C43.1426 14.5228 43.1531 14.0561 43.1742 13.5281C43.1952 13 43.2268 12.4509 43.2671 11.8772C43.3092 11.3035 43.3549 10.7439 43.404 10.1947C43.4531 9.64736 43.504 9.14385 43.5531 8.68771C43.6022 8.23157 43.6478 7.86139 43.6899 7.57894C43.8566 6.47368 44.1005 5.67368 44.425 5.17368C44.7496 4.67368 45.1899 4.42631 45.7461 4.42631C46.1022 4.42631 46.3689 4.5035 46.5426 4.65613C46.7163 4.81052 46.8338 5.02806 46.8917 5.31052C46.9496 5.59297 46.9794 5.92982 46.9794 6.31929C46.9794 6.57719 46.9707 6.87718 46.9549 7.2228C46.9373 7.56841 46.9215 7.93508 46.9057 8.32455C46.8882 8.71578 46.8724 9.12455 46.8566 9.55087C46.8391 9.97894 46.8233 10.4035 46.8075 10.8281C46.7899 11.2509 46.7812 11.6649 46.7759 12.0684C46.7724 12.4719 46.7742 12.8509 46.7829 13.2088C46.7987 13.914 46.8426 14.5053 46.9145 14.9772C46.9847 15.4509 47.125 15.8228 47.3321 16.093C47.5391 16.3631 47.8443 16.5579 48.2478 16.6789C48.6514 16.8 49.1917 16.8632 49.8742 16.8719C50.4636 16.8965 51.0215 16.9193 51.5496 16.9403C52.0777 16.9614 52.511 16.9842 52.8513 17.0088C53.3496 16.9754 53.7566 16.9614 54.0724 16.9649C54.3882 16.9684 54.625 17 54.7829 17.0579C54.9163 17.1246 55.0128 17.2175 55.0759 17.3386C55.1391 17.4596 55.1689 17.6281 55.1689 17.8439C55.1689 18.193 55.0601 18.4877 54.8443 18.7281C54.6285 18.9684 54.3268 19.1719 53.9408 19.3386C53.5549 19.5053 53.1075 19.6509 52.6022 19.7754C52.0707 19.9 51.4566 20 50.7584 20.0737C50.0601 20.1491 49.3671 20.186 48.6777 20.186C48.404 20.186 48.0987 20.1789 47.7619 20.1667C47.425 20.1544 47.097 20.1316 46.7777 20.0982C46.4584 20.0649 46.1812 20.0228 45.9496 19.9737L45.9443 19.9754Z" fill="#A580E0"/>
<path d="M63.6012 20.3614C62.4626 20.3614 61.438 20.1965 60.524 19.8702C59.6099 19.5421 58.831 19.0684 58.1889 18.4491C57.545 17.8298 57.0538 17.0807 56.7117 16.2C56.3713 15.3193 56.2012 14.3263 56.2012 13.2228C56.2012 11.986 56.3819 10.8509 56.7433 9.82105C57.1047 8.79122 57.6363 7.9 58.338 7.14912C59.0398 6.39824 59.8977 5.81754 60.9099 5.41052C61.924 5.0035 63.0819 4.8 64.3854 4.8C65.0503 4.8 65.6626 4.86842 66.2222 5.00526C66.7836 5.1421 67.2678 5.3228 67.6801 5.54736C68.0906 5.77193 68.4117 6.02105 68.6398 6.29473C68.8678 6.56842 68.9819 6.84736 68.9819 7.12982C68.9819 7.47017 68.8906 7.72456 68.7082 7.88947C68.5257 8.05614 68.3012 8.13859 68.0363 8.13859C67.8205 8.13859 67.6222 8.08947 67.445 7.98947C67.2661 7.88947 67.0521 7.77543 66.8029 7.64736C66.5538 7.51929 66.2257 7.40526 65.8187 7.30526C65.4117 7.20526 64.8801 7.15614 64.224 7.15614C63.6766 7.15614 63.1363 7.27192 62.6047 7.50526C62.0731 7.73859 61.5959 8.08421 61.1714 8.54561C60.7485 9.00701 60.4099 9.57543 60.1556 10.2526C59.9029 10.9298 59.7749 11.7123 59.7749 12.6017C59.7749 13.2737 59.8626 13.9175 60.0363 14.5333C60.2099 15.1474 60.4784 15.6947 60.8398 16.1719C61.2012 16.6491 61.6591 17.0246 62.217 17.3C62.7731 17.5737 63.4328 17.7105 64.1977 17.7105C64.7784 17.7105 65.2766 17.6333 65.6924 17.4807C66.1082 17.3263 66.4643 17.1456 66.7643 16.9386C67.0626 16.7316 67.3328 16.5509 67.5749 16.3965C67.8152 16.2421 68.0485 16.1667 68.2731 16.1667C68.7135 16.1667 69.017 16.2684 69.1819 16.4719C69.3485 16.6754 69.431 16.9596 69.431 17.3246C69.431 17.6895 69.2889 18.0667 69.0082 18.4263C68.7257 18.7877 68.3257 19.114 67.8064 19.4035C67.2871 19.6947 66.6713 19.9263 65.9556 20.1017C65.2415 20.2754 64.4556 20.3632 63.6012 20.3632V20.3614Z" fill="#A580E0"/>
</svg>
