<svg width="20" height="20" viewBox="0 0 20 20" fill="none" xmlns="http://www.w3.org/2000/svg">
<path fill-rule="evenodd" clip-rule="evenodd" d="M10 18C12.2333 18 14.125 17.225 15.675 15.675C17.225 14.125 18 12.2333 18 10C18 7.76667 17.225 5.875 15.675 4.325C14.125 2.775 12.2333 2 10 2C7.76667 2 5.875 2.775 4.325 4.325C2.775 5.875 2 7.76667 2 10C2 12.2333 2.775 14.125 4.325 15.675C5.875 17.225 7.76667 18 10 18ZM15.3038 7.53075L8.58075 14.2538L4.677 10.35L5.73075 9.29625L8.58075 12.1463L14.25 6.477L15.3038 7.53075Z" fill="#A580E0"/>
<path fill-rule="evenodd" clip-rule="evenodd" d="M6.2965 18.752C7.45267 19.2507 8.68775 19.5 10.0017 19.5C11.3156 19.5 12.5503 19.2506 13.706 18.7518C14.8617 18.2528 15.8669 17.5757 16.7218 16.7205C17.5766 15.8653 18.2533 14.8597 18.752 13.7035C19.2507 12.5473 19.5 11.3123 19.5 9.99825C19.5 8.68442 19.2506 7.44967 18.7518 6.294C18.2528 5.13833 17.5757 4.13308 16.7205 3.27825C15.8653 2.42342 14.8597 1.74667 13.7035 1.248C12.5473 0.749333 11.3123 0.5 9.99825 0.5C8.68442 0.5 7.44967 0.749417 6.294 1.24825C5.13833 1.74725 4.13308 2.42433 3.27825 3.2795C2.42342 4.13467 1.74667 5.14033 1.248 6.2965C0.749333 7.45267 0.5 8.68775 0.5 10.0017C0.5 11.3156 0.749417 12.5503 1.24825 13.706C1.74725 14.8617 2.42433 15.8669 3.2795 16.7218C4.13467 17.5766 5.14033 18.2533 6.2965 18.752ZM15.675 15.675C14.125 17.225 12.2333 18 10 18C7.76667 18 5.875 17.225 4.325 15.675C2.775 14.125 2 12.2333 2 10C2 7.76667 2.775 5.875 4.325 4.325C5.875 2.775 7.76667 2 10 2C12.2333 2 14.125 2.775 15.675 4.325C17.225 5.875 18 7.76667 18 10C18 12.2333 17.225 14.125 15.675 15.675Z" fill="#A580E0"/>
</svg>
