<svg width="20" height="21" viewBox="0 0 20 21" fill="none" xmlns="http://www.w3.org/2000/svg">
<path d="M10 0.921875C8.02219 0.921875 6.08879 1.50836 4.4443 2.60718C2.79981 3.70599 1.51809 5.26778 0.761209 7.09504C0.00433284 8.9223 -0.1937 10.933 0.192152 12.8728C0.578004 14.8126 1.53041 16.5944 2.92894 17.9929C4.32746 19.3915 6.10929 20.3439 8.0491 20.7297C9.98891 21.1156 11.9996 20.9175 13.8268 20.1607C15.6541 19.4038 17.2159 18.1221 18.3147 16.4776C19.4135 14.8331 20 12.8997 20 10.9219C20 8.26971 18.9464 5.72617 17.0711 3.85081C15.1957 1.97544 12.6522 0.921875 10 0.921875ZM9.23077 6.30649C9.23077 6.10248 9.31182 5.90682 9.45607 5.76256C9.60033 5.6183 9.79599 5.53726 10 5.53726C10.204 5.53726 10.3997 5.6183 10.5439 5.76256C10.6882 5.90682 10.7692 6.10248 10.7692 6.30649V10.9219C10.7692 11.1259 10.6882 11.3215 10.5439 11.4658C10.3997 11.6101 10.204 11.6911 10 11.6911C9.79599 11.6911 9.60033 11.6101 9.45607 11.4658C9.31182 11.3215 9.23077 11.1259 9.23077 10.9219V6.30649ZM10 15.9219C9.77179 15.9219 9.54871 15.8542 9.35896 15.7274C9.16921 15.6006 9.02132 15.4204 8.93399 15.2096C8.84666 14.9987 8.82381 14.7667 8.86833 14.5429C8.91285 14.3191 9.02274 14.1135 9.18411 13.9521C9.34548 13.7908 9.55107 13.6809 9.7749 13.6364C9.99872 13.5918 10.2307 13.6147 10.4416 13.702C10.6524 13.7893 10.8326 13.9372 10.9594 14.127C11.0862 14.3167 11.1538 14.5398 11.1538 14.768C11.1538 15.074 11.0323 15.3675 10.8159 15.5839C10.5995 15.8003 10.306 15.9219 10 15.9219Z" fill="#FF5964"/>
</svg>
