<svg width="20" height="14" viewBox="0 0 20 14" fill="none" xmlns="http://www.w3.org/2000/svg">
<path d="M19.8622 6.96313C17.2538 3.01579 13.7514 0.840057 10 0.840057C6.2486 0.840057 2.7462 3.01579 0.137769 6.96313C-0.0459231 7.24071 -0.0459231 7.60401 0.137769 7.88159C2.7462 11.8289 6.2486 14.0047 10 14.0047C13.7514 14.0047 17.2538 11.8289 19.8622 7.88159C20.0459 7.60401 20.0459 7.24479 19.8622 6.96313ZM10 12.3392C6.97112 12.3392 4.08919 10.6002 1.83998 7.4244C4.08511 4.24857 6.96704 2.50962 10 2.50962C13.0289 2.50962 15.9108 4.24857 18.16 7.4244C15.9108 10.6002 13.033 12.3392 10 12.3392Z" fill="#4C4C4C"/>
<path d="M9.99953 3.03616C7.57888 3.03616 5.61133 5.00371 5.61133 7.42437C5.61133 9.84502 7.57888 11.8126 9.99953 11.8126C12.4202 11.8126 14.3877 9.84502 14.3877 7.42437C14.3877 5.00371 12.4202 3.03616 9.99953 3.03616ZM9.99953 10.2002C8.49734 10.2002 7.27272 8.95513 7.27272 7.42437C7.27272 5.8936 8.49734 4.64857 9.99953 4.64857C11.5017 4.64857 12.7263 5.8936 12.7263 7.42437C12.7263 8.95513 11.5017 10.2002 9.99953 10.2002Z" fill="#4C4C4C"/>
</svg>
