<svg width="16" height="16" viewBox="0 0 16 16" fill="none" xmlns="http://www.w3.org/2000/svg">
<g clip-path="url(#clip0_1250_59345)">
<path d="M6.90471 1.48885C6.20972 1.48885 5.65636 2.05193 5.65636 2.73722V6.90551H10.238C10.5853 6.90551 10.951 7.06486 11.173 7.31485C11.395 7.56485 11.4863 7.86471 11.4863 8.15388C11.4863 8.44306 11.395 8.74373 11.173 8.99373C10.951 9.24372 10.5853 9.40633 10.238 9.40633H5.65636V13.5738C5.65636 14.2672 6.21949 14.8222 6.90471 14.8222H13.5745C14.2597 14.8222 14.8228 14.2672 14.8228 13.5738V2.73722C14.8228 2.05193 14.2678 1.48885 13.5745 1.48885H6.90471ZM3.69351 5.77921L1.61103 7.86173C1.44899 8.02377 1.44899 8.28725 1.61103 8.44929L3.69351 10.5318C4.08734 10.9257 4.67815 10.3349 4.28432 9.94099L2.91309 8.57217H10.2412C10.7962 8.57217 10.7962 7.73884 10.2412 7.73884H2.91553L4.28432 6.37003C4.66451 5.94625 4.08903 5.40044 3.69351 5.77921Z" fill="#A580E0"/>
</g>
<defs>
<clipPath id="clip0_1250_59345">
<rect width="13.3333" height="13.3333" fill="white" transform="translate(1.48828 1.48893)"/>
</clipPath>
</defs>
</svg>
