<svg width="16" height="16" viewBox="0 0 16 16" fill="none" xmlns="http://www.w3.org/2000/svg">
<g clip-path="url(#clip0_1250_40520)">
<path d="M12.5541 3.12621C11.2961 1.86612 9.62212 1.17133 7.83562 1.16961C4.16308 1.16961 1.17257 4.15698 1.16944 7.82941C1.16771 9.61029 1.85968 11.2851 3.1174 12.5456C4.37555 13.8053 6.04295 14.5026 7.82373 14.5026H7.83918V14.502C11.4854 14.502 14.5001 11.5139 14.5028 7.84173C14.5045 6.06096 13.8116 4.38641 12.5541 3.12621ZM8.13184 11.3584C8.05522 11.4358 7.94812 11.4801 7.8381 11.4801C7.72766 11.4799 7.62023 11.4354 7.54275 11.3569C7.4658 11.2806 7.4216 11.1734 7.42171 11.0631C7.42193 10.9531 7.46667 10.8452 7.54415 10.7679C7.62132 10.691 7.735 10.6467 7.83918 10.6467C7.94887 10.6467 8.05608 10.6912 8.13259 10.7684C8.21084 10.8473 8.25569 10.9552 8.25547 11.0637C8.25536 11.1727 8.2103 11.28 8.13184 11.3584ZM8.33241 8.80658C8.28486 8.81706 8.25082 8.85921 8.25071 8.90795L8.25017 9.3975C8.24996 9.62683 8.06332 9.81379 7.83313 9.81379C7.60316 9.81357 7.41674 9.62629 7.41695 9.39675L7.41793 8.45211C7.41814 8.22289 7.60478 8.04468 7.83443 8.04468H7.83627C8.63296 8.04468 9.2817 7.38762 9.28257 6.59093C9.28289 6.2049 9.133 5.83757 8.86001 5.56362C8.58605 5.28988 8.22326 5.13707 7.83648 5.13663C7.03968 5.13663 6.39072 5.78386 6.38986 6.5811C6.38964 6.81053 6.20279 6.99662 5.97271 6.99662C5.8614 6.99662 5.75668 6.95275 5.67822 6.87386C5.59944 6.79518 5.55642 6.69046 5.55653 6.57926C5.55772 5.32316 6.58039 4.30104 7.8381 4.30104C9.09528 4.30233 10.1169 5.32597 10.1157 6.58293C10.1148 7.64126 9.36513 8.5765 8.33241 8.80658Z" fill="#A580E0"/>
</g>
<defs>
<clipPath id="clip0_1250_40520">
<rect width="13.3333" height="13.3333" fill="white" transform="translate(1.16931 1.16927)"/>
</clipPath>
</defs>
</svg>
